<svg width="865" height="425" viewBox="0 0 865 425" fill="none" xmlns="http://www.w3.org/2000/svg">
<path d="M201.951 153.516C202.155 154.761 202.273 155.774 202.303 156.556C202.386 157.271 202.276 157.888 201.973 158.406C201.73 158.917 201.269 159.363 200.588 159.744C199.967 160.118 199.055 160.586 197.851 161.148C196.476 161.79 195.141 162.518 193.846 163.333C192.61 164.14 191.461 164.907 190.397 165.634C189.327 166.302 188.402 166.922 187.623 167.496C186.896 168.003 186.358 168.306 186.007 168.407C185.835 168.488 185.62 168.452 185.361 168.301C185.102 168.15 184.955 167.925 184.92 167.627C184.886 167.329 185.072 166.855 185.48 166.203C185.888 165.552 186.385 164.891 186.972 164.219C187.611 163.48 188.228 162.805 188.821 162.193C189.468 161.514 189.979 160.972 190.355 160.566C185.043 161.12 180.356 162.115 176.295 163.552C172.285 164.922 168.953 166.395 166.296 167.97C163.64 169.546 161.676 171.102 160.404 172.639C159.125 174.115 158.59 175.234 158.799 175.995C158.886 176.227 158.977 176.488 159.071 176.779C159.225 177.064 159.557 177.327 160.068 177.57C160.632 177.746 161.468 177.921 162.575 178.095C163.735 178.203 165.369 178.225 167.476 178.162C169.642 178.093 172.338 177.902 175.563 177.589C178.848 177.269 182.868 176.774 187.622 176.103C187.861 176.075 188.308 176.023 188.963 175.948C189.619 175.872 190.282 175.855 190.951 175.899C191.68 175.935 192.33 176.071 192.901 176.307C193.465 176.484 193.778 176.84 193.84 177.376C193.888 177.794 193.828 178.314 193.658 178.938C193.482 179.502 193.25 180.102 192.961 180.74C192.725 181.311 192.426 181.859 192.064 182.384C191.761 182.902 191.475 183.298 191.205 183.57C190.881 183.91 190.346 184.244 189.599 184.572C188.911 184.893 188.134 185.224 187.268 185.566C186.454 185.842 185.64 186.117 184.827 186.392C184.006 186.608 183.391 186.77 182.98 186.878C177.369 188.494 172.6 190.344 168.674 192.429C164.8 194.448 161.652 196.473 159.229 198.505C156.8 200.477 155.049 202.311 153.977 204.005C152.964 205.693 152.503 206.924 152.592 207.699C152.689 208.533 153.391 209.117 154.697 209.449C156.064 209.774 157.976 209.854 160.433 209.691C162.95 209.52 165.943 209.023 169.411 208.199C172.88 207.375 176.799 206.015 181.17 204.12C184.272 202.734 187.149 200.982 189.803 198.863C192.51 196.677 195.257 194.578 198.044 192.564C198.349 194.159 198.548 195.616 198.64 196.934C198.785 198.186 198.744 199.399 198.518 200.573C198.291 201.746 197.849 202.885 197.191 203.988C196.593 205.084 195.701 206.244 194.514 207.469C193.815 208.214 192.607 209.26 190.89 210.606C189.24 212.005 187.08 213.433 184.41 214.889C181.799 216.339 178.665 217.698 175.006 218.967C171.407 220.229 167.306 221.066 162.703 221.478C160.61 221.66 158.5 221.693 156.373 221.576C154.305 221.453 152.256 221.237 150.227 220.929C149.246 220.8 148.323 220.394 147.459 219.709C146.594 219.024 145.839 218.235 145.192 217.344C144.545 216.452 144.011 215.487 143.589 214.449C143.166 213.41 142.904 212.444 142.8 211.55C142.628 210.06 142.957 208.21 143.789 206C144.68 203.783 146.309 201.42 148.676 198.911C151.043 196.402 154.308 193.82 158.47 191.164C162.633 188.508 167.899 185.996 174.269 183.628L174.238 183.359C169.151 183.767 164.964 183.859 161.676 183.635C158.448 183.405 155.885 182.916 153.987 182.169C152.088 181.423 150.746 180.521 149.959 179.465C149.166 178.348 148.696 177.164 148.552 175.913C148.296 173.707 148.855 171.227 150.227 168.471C151.593 165.655 153.873 162.915 157.068 160.25C160.262 157.585 164.426 155.201 169.558 153.097C174.743 150.926 181.031 149.414 188.421 148.558C189.137 148.476 190.12 148.362 191.372 148.217C192.683 148.065 194.005 148.003 195.337 148.03C196.662 147.997 197.885 148.128 199.006 148.421C200.12 148.654 200.897 149.108 201.338 149.782L201.951 153.516ZM228.29 181.363L223.915 187.396C223.394 188.12 222.799 188.975 222.127 189.958C221.515 190.935 221.265 191.9 221.375 192.854C221.485 193.807 221.966 194.567 222.817 195.133C223.661 195.64 224.613 196.043 225.675 196.343C226.789 196.576 227.923 196.717 229.076 196.765C230.222 196.753 231.153 196.705 231.868 196.623C233.835 196.395 235.972 195.816 238.281 194.884C240.589 193.952 242.701 192.893 244.617 191.705C246.533 190.516 248.115 189.307 249.361 188.075C250.601 186.784 251.169 185.691 251.066 184.797C250.976 184.023 250.42 183.392 249.397 182.907C248.434 182.414 247.214 182.042 245.735 181.79C244.249 181.479 242.625 181.274 240.862 181.176C239.099 181.078 237.373 181.037 235.683 181.051C234.053 181.058 232.549 181.112 231.172 181.211C229.847 181.243 228.886 181.294 228.29 181.363ZM231.707 176.437C232.8 176.492 234.258 176.565 236.081 176.656C237.896 176.688 239.868 176.761 241.995 176.878C244.182 176.987 246.383 177.215 248.598 177.563C250.806 177.851 252.819 178.283 254.637 178.858C256.455 179.432 257.962 180.194 259.159 181.143C260.416 182.085 261.127 183.271 261.293 184.701C261.437 185.953 260.908 187.645 259.706 189.777C258.562 191.903 256.671 194.085 254.03 196.323C251.39 198.561 247.951 200.681 243.713 202.681C239.475 204.682 234.366 206.209 228.388 207.263C226.793 207.569 225.054 207.679 223.172 207.595C221.356 207.564 219.628 207.25 217.989 206.655C216.409 206.052 215.037 205.154 213.872 203.96C212.767 202.759 212.097 201.145 211.862 199.119C211.779 198.404 211.737 197.774 211.734 197.231C211.725 196.628 211.956 195.756 212.428 194.614C212.893 193.413 213.671 191.782 214.761 189.723C215.905 187.598 217.591 184.685 219.82 180.984C219.158 181 218.346 181.034 217.386 181.084C216.478 181.069 215.567 181.023 214.652 180.948C213.79 180.806 213.007 180.564 212.303 180.223C211.652 179.815 211.281 179.224 211.192 178.449C211.081 177.495 211.651 176.674 212.9 175.986C214.209 175.291 215.71 174.695 217.404 174.197C219.091 173.639 220.759 173.174 222.407 172.802C224.055 172.43 225.197 172.117 225.832 171.862C227.097 170.266 228.388 168.637 229.705 166.975C231.076 165.246 232.49 163.632 233.947 162.135C235.464 160.631 237.099 159.354 238.85 158.306C240.66 157.251 242.698 156.592 244.963 156.33C244.826 156.709 244.662 157.12 244.472 157.565C244.341 158.003 244.026 158.673 243.527 159.577C243.02 160.421 242.307 161.56 241.386 162.996C240.464 164.431 239.204 166.329 237.605 168.688C242.588 167.387 246.631 166.043 249.732 164.657C252.833 163.272 255.246 161.935 256.969 160.649C258.686 159.303 259.817 158.115 260.362 157.085C260.96 155.989 261.195 155.147 261.066 154.557C261.011 154.081 260.74 153.568 260.254 153.021C259.827 152.466 259.08 152.009 258.011 151.649C257.003 151.283 255.65 151.077 253.954 151.032C252.257 150.986 250.138 151.201 247.596 151.677C247.066 151.798 246.096 152.031 244.687 152.376C243.336 152.713 241.616 153.245 239.526 153.97C237.435 154.695 235.004 155.61 232.233 156.716C229.462 157.822 226.45 159.197 223.197 160.842C223.509 160.927 223.798 161.075 224.064 161.285C224.383 161.43 224.563 161.681 224.604 162.038C224.68 162.694 224.348 163.216 223.608 163.603C222.867 163.991 222.206 164.279 221.624 164.467C220.28 164.864 219.116 165.241 218.13 165.596C217.197 165.885 216.301 166.231 215.442 166.632C214.575 166.974 213.686 167.379 212.773 167.847C211.914 168.248 210.853 168.734 209.59 169.302C209.186 169.47 208.757 169.671 208.3 169.905C207.837 170.079 207.367 170.194 206.891 170.249C205.401 170.421 204.562 169.703 204.376 168.094C204.342 167.796 204.57 166.894 205.06 165.387C205.609 163.874 206.463 162.114 207.62 160.108C208.429 158.746 209.376 157.277 210.462 155.702C211.548 154.127 212.832 152.951 214.312 152.176C216.361 151.093 218.831 149.992 221.722 148.872C224.665 147.686 227.708 146.579 230.85 145.551C233.993 144.523 237.093 143.651 240.151 142.935C243.202 142.159 245.89 141.636 248.215 141.367C252.029 140.926 255.2 140.921 257.726 141.354C260.305 141.72 262.372 142.356 263.927 143.264C265.481 144.171 266.603 145.249 267.291 146.498C267.972 147.688 268.382 148.879 268.52 150.071C268.802 152.515 268.365 154.74 267.208 156.746C266.044 158.693 264.442 160.509 262.403 162.194C260.356 163.82 258.021 165.299 255.396 166.629C252.765 167.9 250.09 169.055 247.371 170.095C244.646 171.074 242.029 171.951 239.521 172.724C237.066 173.431 234.995 174.064 233.308 174.621L231.707 176.437Z" fill="#000"/>
<path d="M86.1053 193.723L71.6732 216.268C68.9919 220.45 66.5247 224.108 64.2715 227.244C62.1037 230.364 60.1072 232.969 58.2821 235.059C56.4416 237.064 54.7376 238.604 53.1699 239.679C51.6177 240.839 50.1166 241.55 48.6666 241.811C47.3871 242.041 45.9149 241.69 44.2498 240.757C42.67 239.809 41.1798 238.624 39.7791 237.203C38.363 235.697 37.1601 234.152 36.1705 232.569C35.2509 230.886 34.7765 229.474 34.7473 228.335C34.7251 227.722 34.7028 227.11 34.6806 226.497C34.6584 225.885 34.8033 224.978 35.1153 223.777C35.5127 222.561 36.1744 220.857 37.1004 218.664C38.1118 216.457 39.6826 213.444 41.8129 209.626C43.9278 205.723 46.7071 200.863 50.1507 195.047C53.6796 189.216 58.1176 182.076 63.4647 173.628C63.9934 172.652 64.6347 171.568 65.3886 170.375C66.2124 169.082 66.5168 167.839 66.3017 166.644C66.0867 165.45 65.4716 164.724 64.4565 164.467C63.4261 164.124 62.3565 164.053 61.2477 164.252C60.0536 164.467 58.4791 165.015 56.5242 165.896C54.5693 166.776 52.4745 167.858 50.2399 169.141C48.0053 170.424 45.6658 171.858 43.2214 173.443C40.7616 174.943 38.4375 176.462 36.249 178.001C34.0451 179.455 32.0544 180.87 30.277 182.247C28.4842 183.539 27.0949 184.626 26.109 185.508C25.0378 186.405 23.7959 187.333 22.3836 188.292C20.9712 189.251 19.54 189.861 18.09 190.122C17.7488 190.184 17.2489 190.098 16.5904 189.864C15.9319 189.63 15.3749 188.982 14.9193 187.919C14.4483 186.771 14.1914 185.1 14.1485 182.907C14.1755 180.612 14.704 177.435 15.734 173.375C15.9761 172.274 16.2916 171.337 16.6804 170.562C17.0539 169.703 17.4854 168.92 17.975 168.216C18.5498 167.496 19.1323 166.818 19.7224 166.184C20.3826 165.448 21.1203 164.655 21.9356 163.804L29.5192 155.305C29.7989 154.902 30.1716 154.527 30.6373 154.179C31.0876 153.746 31.5686 153.483 32.0804 153.391C32.3363 153.345 32.6229 153.469 32.9402 153.764C33.3429 154.044 33.2952 154.757 32.7972 155.903L29.9522 160.643L30.2542 160.853C35.2045 158.024 40.1624 155.237 45.128 152.494C50.0937 149.75 55.5114 147.805 61.3814 146.66C63.3431 146.307 65.2503 146.139 67.103 146.158C68.9402 146.091 70.6522 146.796 72.2389 148.271C72.8735 148.861 73.504 149.672 74.1301 150.704C74.8416 151.721 75.4832 152.838 76.0548 154.056C76.6963 155.174 77.2099 156.314 77.5956 157.477C78.0666 158.625 78.3789 159.626 78.5325 160.479C78.6554 161.161 78.716 161.987 78.7144 162.956C78.7128 163.925 78.5091 165.238 78.1033 166.896C77.6821 168.469 76.9539 170.538 75.9187 173.102C74.8835 175.666 73.3664 178.977 71.3676 183.036C69.3533 187.009 66.7796 191.788 63.6464 197.372C60.5133 202.955 56.6885 209.589 52.1721 217.271C51.6433 218.247 51.3048 219.056 51.1565 219.699C51.0781 220.242 51.1122 220.676 51.259 221.002C51.4057 221.328 51.6301 221.595 51.932 221.805C52.3039 221.914 52.6255 221.988 52.8968 222.028C53.2687 222.137 54.6623 220.829 57.0775 218.104C59.4928 215.38 62.6466 211.377 66.5389 206.097C70.4159 200.732 74.9614 194.189 80.1756 186.469C85.3744 178.664 91.0285 169.72 97.138 159.637C97.6821 158.747 98.3507 157.57 99.1438 156.106C99.9215 154.557 100.792 153.035 101.756 151.541C102.789 149.945 103.947 148.548 105.228 147.349C106.509 146.149 107.96 145.404 109.58 145.112C110.433 144.958 111.262 145.161 112.068 145.721C112.958 146.265 113.701 146.967 114.297 147.829C114.962 148.59 115.507 149.416 115.932 150.308C116.357 151.2 116.615 151.902 116.707 152.414C116.784 152.841 116.721 153.468 116.518 154.297C116.315 155.127 116.027 155.971 115.654 156.831C115.28 157.691 114.907 158.55 114.533 159.41C114.23 160.169 113.981 160.743 113.786 161.13C113.078 162.578 112.067 164.786 110.752 167.753C109.507 170.619 108.11 173.864 106.562 177.49C105.013 181.115 103.46 184.961 101.903 189.028C100.416 192.995 99.0263 196.767 97.7336 200.346C96.5262 203.91 95.6062 207.114 94.9736 209.958C94.3257 212.716 94.1169 214.735 94.3473 216.015C94.3696 216.627 94.6324 217.108 95.1356 217.458C95.6389 217.808 96.0884 217.859 96.4842 217.611C99.0684 215.825 101.926 213.109 105.056 209.463C108.185 205.817 111.286 201.516 114.356 196.56C117.426 191.604 120.311 186.109 123.01 180.075C125.78 173.94 128.054 167.498 129.833 160.749C129.439 160.028 129.13 159.291 128.906 158.539C128.683 157.786 128.494 156.984 128.341 156.131C128.141 155.022 128.294 153.673 128.801 152.085C129.377 150.396 130.097 148.77 130.96 147.205C131.823 145.641 132.682 144.297 133.536 143.175C134.375 141.967 135.051 141.317 135.563 141.225C136.16 141.117 136.725 141.323 137.259 141.844C137.863 142.263 138.362 142.834 138.756 143.555C139.135 144.192 139.436 144.886 139.66 145.638C139.883 146.39 140.034 146.98 140.11 147.406C140.785 152.128 140.59 157.403 139.526 163.23C138.548 169.043 137.015 174.955 134.927 180.967C132.825 186.893 130.315 192.761 127.398 198.57C124.467 204.294 121.4 209.513 118.198 214.229C114.997 218.944 111.793 222.912 108.586 226.131C105.465 229.335 102.612 231.346 100.03 232.163C98.9517 232.534 97.5486 232.566 95.8205 232.261C94.1776 231.94 92.4887 231.364 90.7537 230.532C89.0886 229.599 87.5984 228.414 86.283 226.978C84.9675 225.542 84.1408 223.885 83.8029 222.009C83.4495 220.047 83.3213 217.869 83.4183 215.474C83.4999 212.993 83.7095 210.49 84.047 207.963C84.3845 205.437 84.7723 202.945 85.2104 200.489C85.6486 198.032 86.0475 195.847 86.4073 193.933L86.1053 193.723Z" fill="#000"/>
<path d="M455.694 180.293L449.557 191.111C449.536 191.591 449.671 191.957 449.96 192.209C450.25 192.462 450.634 192.598 451.114 192.619C451.534 192.637 451.926 192.594 452.291 192.489C452.658 192.325 453.119 192.074 453.674 191.737C454.289 191.403 455.029 190.955 455.893 190.391C456.761 189.767 457.876 188.974 459.238 188.012L460.757 190.419C459.632 191.452 458.32 192.627 456.823 193.944C455.327 195.201 453.745 196.395 452.075 197.524C450.408 198.594 448.687 199.512 446.913 200.276C445.201 200.984 443.536 201.303 441.918 201.234C440.299 201.165 439.153 200.575 438.48 199.466C437.807 198.356 437.501 197.082 437.562 195.643C437.57 195.463 437.549 195.252 437.499 195.01C437.45 194.767 437.594 194.203 437.932 193.317C438.333 192.373 439.025 190.931 440.009 188.991C441.052 187.054 442.641 184.299 444.776 180.727L425.147 180.519L405.93 198.074C405.367 198.591 404.712 199.163 403.965 199.792C403.274 200.483 402.527 201.112 401.722 201.678C400.977 202.247 400.176 202.723 399.319 203.107C398.462 203.49 397.643 203.666 396.864 203.632C396.205 203.604 395.52 203.455 394.811 203.184C394.102 202.914 393.766 202.359 393.802 201.52C393.832 200.8 394.297 199.769 395.195 198.426C396.031 197.141 397.168 195.808 398.609 194.428C400.049 193.049 401.726 191.739 403.641 190.5C405.618 189.203 407.671 188.24 409.8 187.61L417.144 180.177C415.703 180.175 414.442 180.182 413.36 180.195C412.281 180.149 411.353 180.08 410.576 179.986C409.862 179.836 409.33 179.633 408.981 179.378C408.634 179.062 408.473 178.605 408.499 178.006C408.517 177.586 408.907 176.882 409.67 175.894C410.436 174.846 411.412 173.776 412.6 172.686C413.788 171.596 415.063 170.569 416.425 169.607C417.787 168.644 419.076 168.008 420.29 167.7C421.202 167.439 422.141 167.239 423.108 167.1C424.077 166.901 424.983 166.789 425.825 166.765C426.669 166.681 427.359 166.711 427.893 166.854C428.43 166.937 428.692 167.128 428.679 167.428C428.661 167.847 428.289 168.132 427.562 168.281C426.897 168.373 426.143 168.46 425.298 168.545C424.517 168.571 423.762 168.659 423.035 168.808C422.371 168.9 422.029 169.155 422.011 169.575C421.999 169.875 422.139 170.091 422.434 170.224C422.729 170.356 422.996 170.428 423.236 170.438C423.595 170.454 424.045 170.473 424.584 170.496C425.186 170.461 425.787 170.457 426.387 170.483C426.989 170.448 427.499 170.44 427.919 170.458C428.341 170.416 428.612 170.398 428.732 170.403L449.589 154.539C451.883 152.835 454.24 151.104 456.657 149.346C459.074 147.588 461.393 146.035 463.612 144.689C465.834 143.282 467.834 142.167 469.61 141.342C471.45 140.46 472.879 140.04 473.898 140.084C474.857 140.125 475.587 140.607 476.088 141.529C476.652 142.394 476.916 143.246 476.88 144.085C476.839 145.044 476.431 146.168 475.655 147.456C474.942 148.686 474.327 149.711 473.812 150.53L461.828 169.565C463.507 169.637 464.617 169.655 465.159 169.618C465.704 169.521 466.096 169.478 466.336 169.488C466.638 169.441 466.966 169.485 467.321 169.62C467.738 169.698 468.659 169.917 470.085 170.279C468.7 171.781 467.43 173.378 466.277 175.07C465.124 176.763 463.999 178.486 462.903 180.241L455.694 180.293ZM451.922 169.502L465.027 149.524L464.855 149.336L437.95 169.716L438.122 169.903L451.922 169.502ZM515.951 189.535L522.408 181.793C524.624 179.126 526.525 176.805 528.11 174.831C529.699 172.797 531.068 170.963 532.219 169.331C533.43 167.701 534.455 166.184 535.296 164.778C536.197 163.376 537.069 161.941 537.912 160.476C538.753 159.071 539.125 158.096 539.028 157.551C538.994 156.949 538.737 156.638 538.257 156.617C537.718 156.594 537.168 156.811 536.608 157.267C536.111 157.667 535.704 158.04 535.389 158.386L512.81 180.843L498.546 198.43C498.163 198.954 497.718 199.535 497.21 200.174C496.705 200.753 496.141 201.3 495.518 201.813C494.956 202.33 494.337 202.754 493.662 203.085C493.045 203.479 492.377 203.661 491.657 203.63C490.698 203.589 489.876 203.164 489.19 202.354C488.564 201.546 488.003 200.621 487.507 199.579C487.013 198.477 486.61 197.379 486.296 196.285C485.985 195.13 485.725 194.188 485.516 193.459L505.324 170.524C507.841 166.427 509.691 163.173 510.876 160.762C512.122 158.293 512.922 156.435 513.276 155.189C513.632 153.883 513.668 153.044 513.383 152.672C513.099 152.299 512.777 152.105 512.417 152.09C512.058 152.074 511.572 152.204 510.959 152.478C510.41 152.695 509.951 152.885 509.584 153.05C504.876 155.01 500.991 156.676 497.93 158.047C494.928 159.42 492.508 160.547 490.669 161.43C488.829 162.312 487.418 163.002 486.436 163.501C485.514 164.002 484.778 164.361 484.228 164.577C483.679 164.794 483.193 164.923 482.77 164.965C482.408 165.01 481.837 165.016 481.058 164.982C480.339 164.952 479.751 164.656 479.294 164.096C478.84 163.476 478.756 162.632 479.042 161.563C479.627 159.126 480.144 156.866 480.593 154.783C481.043 152.701 481.456 151.457 481.834 151.053C482.024 150.821 482.183 150.617 482.31 150.443C482.5 150.21 482.843 149.925 483.338 149.586C483.835 149.187 484.609 148.649 485.659 147.973C486.771 147.24 488.347 146.196 490.387 144.842C490.634 144.673 491.004 144.448 491.496 144.169C491.991 143.83 492.389 143.667 492.688 143.68C492.928 143.69 493.164 143.79 493.396 143.98C493.631 144.11 493.742 144.325 493.729 144.625C493.716 144.925 493.332 145.479 492.577 146.287C491.824 147.036 490.545 148.152 488.74 149.636L488.913 149.824L499.273 145.583C499.456 145.53 499.914 145.34 500.649 145.011C501.443 144.684 502.391 144.304 503.49 143.871C504.59 143.438 505.779 143.008 507.058 142.582C508.4 142.099 509.68 141.673 510.896 141.305C512.116 140.877 513.21 140.563 514.18 140.364C515.211 140.108 515.997 139.992 516.537 140.015C517.613 140.121 518.32 140.451 518.656 141.006C518.993 141.561 519.384 142.238 519.831 143.038L521.827 146.907C522.101 147.519 522.317 148.099 522.473 148.646C522.693 149.136 522.788 149.71 522.76 150.37C522.729 151.089 522.443 152.158 521.902 153.576C521.364 154.934 520.73 156.409 520.002 157.999C519.336 159.532 518.642 161.004 517.921 162.414C517.26 163.827 516.792 164.948 516.516 165.777L516.689 165.965L531.577 152.729C532.45 151.985 533.54 151.071 534.848 149.986C536.215 148.903 537.61 147.882 539.032 146.922C540.457 145.901 541.844 145.06 543.194 144.397C544.606 143.677 545.761 143.336 546.661 143.374C547.14 143.395 547.736 143.51 548.447 143.721C549.219 143.934 549.923 144.324 550.559 144.892C551.258 145.402 551.83 146.087 552.273 146.947C552.779 147.749 553.008 148.72 552.959 149.859C552.888 151.537 552.262 153.523 551.083 155.814C549.964 158.109 548.633 160.454 547.089 162.85C545.548 165.186 543.951 167.43 542.298 169.582C540.704 171.736 539.427 173.513 538.466 174.913L538.639 175.1C544.418 170.543 550.048 165.979 555.529 161.409C561.071 156.782 566.91 152.257 573.044 147.835C573.664 147.381 574.379 146.811 575.189 146.125C576.059 145.441 576.914 145.118 577.753 145.153C578.352 145.179 578.998 145.537 579.689 146.227C580.383 146.857 581.011 147.605 581.575 148.47C582.198 149.337 582.701 150.229 583.082 151.146C583.466 152.004 583.647 152.672 583.627 153.152C583.606 153.631 583.433 154.164 583.108 154.751C582.785 155.278 582.401 155.832 581.956 156.413C581.511 156.995 581.037 157.545 580.534 158.064C580.094 158.526 579.747 158.931 579.491 159.281L564.828 175.679C563.755 176.895 562.553 178.315 561.223 179.939C559.954 181.507 558.772 183.168 557.676 184.922C556.581 186.677 555.632 188.498 554.831 190.386C554.092 192.216 553.686 193.97 553.615 195.649C553.576 196.548 553.775 197.517 554.211 198.557C554.707 199.599 555.495 200.143 556.574 200.189C557.832 200.243 560.28 199.177 563.917 196.99C567.613 194.806 572.615 190.906 578.92 185.29L579.134 188.722C578.731 189.726 577.868 190.95 576.545 192.395C575.284 193.782 573.75 195.248 571.943 196.792C570.138 198.277 568.151 199.783 565.984 201.312C563.879 202.784 561.781 204.105 559.689 205.277C557.6 206.389 555.609 207.295 553.718 207.994C551.826 208.694 550.251 209.017 548.992 208.963C547.493 208.899 546.249 208.516 545.258 207.813C544.324 207.173 543.551 206.299 542.937 205.191C542.382 204.147 541.981 202.989 541.735 201.717C541.551 200.388 541.488 199.064 541.544 197.745C541.659 195.048 542.409 192.257 543.794 189.374C545.178 186.49 546.831 183.648 548.752 180.848C550.734 178.05 552.8 175.375 554.951 172.825C557.101 170.274 559 168.013 560.645 166.042L560.473 165.854C557.803 167.902 555.412 169.752 553.3 171.403C551.247 173.057 549.287 174.655 547.42 176.196C545.615 177.681 543.868 179.198 542.181 180.747C540.496 182.236 538.774 183.874 537.016 185.661C535.258 187.447 533.371 189.439 531.356 191.635C529.34 193.83 527.099 196.377 524.633 199.274C524.256 199.679 523.721 200.256 523.028 201.007C522.335 201.759 521.583 202.507 520.77 203.253C520.02 203.942 519.244 204.539 518.441 205.045C517.639 205.551 516.968 205.793 516.429 205.77C515.529 205.732 514.795 205.34 514.227 204.595C513.656 203.91 513.211 203.08 512.892 202.106C512.576 201.071 512.35 200.041 512.213 199.014C512.077 197.987 512.023 197.144 512.051 196.485C512.105 195.226 512.578 193.985 513.471 192.762C514.364 191.539 515.191 190.463 515.951 189.535ZM631.924 189.898L639.831 177.714L639.659 177.527C627.545 188.359 618.294 196.161 611.904 200.933C605.575 205.707 601.667 207.912 600.181 207.548C597.324 206.946 595.241 205.806 593.931 204.128C592.622 202.451 592.02 200.383 592.125 197.925C592.186 196.487 592.672 194.946 593.583 193.303C594.497 191.601 595.559 189.935 596.77 188.305C598.043 186.618 599.372 185.023 600.758 183.521C602.143 182.019 603.308 180.747 604.254 179.707C607.34 176.355 609.982 173.556 612.18 171.307C614.44 169.002 616.262 167.128 617.645 165.686C619.087 164.246 620.125 163.149 620.758 162.396C621.451 161.645 621.805 161.089 621.82 160.729C621.846 160.13 621.559 159.817 620.959 159.792C620.66 159.779 620.204 159.91 619.591 160.184C618.982 160.398 618.554 160.56 618.309 160.669C617.088 161.158 616.08 161.535 615.288 161.801C614.496 162.068 613.733 162.366 612.998 162.695C612.266 162.963 611.503 163.261 610.708 163.588C609.913 163.914 608.874 164.35 607.589 164.896C606.367 165.384 604.838 166.039 603.001 166.861C601.164 167.684 598.869 168.697 596.115 169.9C595.503 170.174 594.799 170.474 594.005 170.801C593.213 171.067 592.391 171.332 591.538 171.596C590.686 171.86 589.837 172.064 588.99 172.208C588.203 172.355 587.48 172.414 586.82 172.385C586.041 172.352 585.416 172.235 584.944 172.035C584.534 171.777 584.408 171.231 584.563 170.397C584.945 168.492 585.787 166.366 587.088 164.019C588.389 161.673 590.107 159.434 592.239 157.303C594.432 155.175 597.035 153.304 600.046 151.691C603.118 150.081 606.645 149.061 610.627 148.63C611.953 148.507 613.465 148.271 615.161 147.923C616.917 147.578 618.674 147.233 620.43 146.887C622.246 146.545 624 146.259 625.691 146.031C627.383 145.803 628.858 145.716 630.117 145.77C631.435 145.826 632.469 146.231 633.218 146.984C634.026 147.739 634.587 148.664 634.901 149.758C635.274 150.855 635.404 152.032 635.29 153.288C635.239 154.487 635.042 155.589 634.698 156.596C634.293 157.659 633.831 158.63 633.313 159.509C632.797 160.328 632.222 161.144 631.587 161.958C630.951 162.771 630.256 163.582 629.501 164.391C628.746 165.199 627.955 166.126 627.13 167.172C626.567 167.689 625.626 168.639 624.305 170.024C623.048 171.352 621.601 172.881 619.966 174.613C618.39 176.347 616.72 178.198 614.954 180.164C613.251 182.073 611.672 183.897 610.216 185.637C608.82 187.379 607.643 188.92 606.685 190.26C605.79 191.543 605.33 192.454 605.307 192.994C605.261 194.073 605.838 194.638 607.036 194.689C607.636 194.715 608.582 194.365 609.874 193.639C611.166 192.914 612.616 192.015 614.223 190.943C615.893 189.813 617.628 188.566 619.428 187.201C621.29 185.78 623.03 184.413 624.647 183.101C626.265 181.788 627.697 180.589 628.945 179.501C630.253 178.416 631.188 177.615 631.75 177.098C636.998 172.338 641.341 168.38 644.779 165.224C648.28 162.011 651.122 159.43 653.308 157.481C655.493 155.533 657.143 154.162 658.258 153.369C659.433 152.578 660.35 152.197 661.009 152.225C661.668 152.253 662.199 152.486 662.601 152.924C663.062 153.364 663.43 153.89 663.704 154.502C663.978 155.115 664.161 155.753 664.253 156.418C664.405 157.085 664.47 157.658 664.45 158.137C664.609 158.625 664.492 159.25 664.099 160.014C663.769 160.721 662.936 161.946 661.6 163.691C660.324 165.438 658.448 167.88 655.972 171.017C653.558 174.097 650.318 178.252 646.251 183.483C644.345 185.924 642.813 188.051 641.654 189.863C640.558 191.618 639.682 193.142 639.027 194.435C638.433 195.671 638.03 196.674 637.817 197.446C637.606 198.158 637.493 198.693 637.478 199.053C637.434 200.072 637.727 200.955 638.356 201.703C638.987 202.391 639.782 202.755 640.741 202.796C641.88 202.844 643.308 202.455 645.025 201.628C646.804 200.743 648.59 199.708 650.382 198.524C652.174 197.339 653.878 196.121 655.493 194.869C657.108 193.616 658.38 192.65 659.31 191.969C659.397 192.753 659.461 193.357 659.503 193.779C659.608 194.144 659.651 194.536 659.633 194.955C659.615 195.375 659.135 196.075 658.192 197.056C657.252 197.976 656.036 199.035 654.543 200.233C653.053 201.37 651.351 202.559 649.436 203.798C647.521 205.037 645.612 206.157 643.708 207.156C641.803 208.156 639.938 208.947 638.111 209.53C636.342 210.175 634.798 210.469 633.479 210.413C631.381 210.323 629.701 209.591 628.438 208.215C627.176 206.84 626.59 205.104 626.679 203.006C626.789 200.428 627.339 198.109 628.328 196.05C629.377 193.992 630.575 191.942 631.924 189.898ZM713.991 210.971L681.248 197.23L673.034 208.14C673.241 208.929 673.118 209.705 672.665 210.466C672.212 211.227 671.583 211.891 670.778 212.457C670.033 213.026 669.203 213.471 668.289 213.792C667.432 214.176 666.703 214.355 666.104 214.329C665.564 214.306 665.092 214.106 664.688 213.728C664.281 213.411 664.091 212.952 664.116 212.353C664.152 211.513 664.305 210.739 664.576 210.03C664.904 209.384 665.323 208.711 665.833 208.012L674.784 194.612C674.427 194.537 673.982 194.398 673.45 194.195C672.921 193.932 672.422 193.67 671.952 193.41C671.546 193.092 671.17 192.746 670.826 192.371C670.541 191.999 670.469 191.575 670.61 191.101C670.838 189.969 671.305 188.878 672.011 187.827C672.779 186.719 673.75 185.77 674.925 184.979C676.16 184.191 677.598 183.562 679.24 183.092C680.881 182.622 682.752 182.401 684.853 182.431L698.983 163.757C695.663 164.156 692.339 164.644 689.012 165.223C685.746 165.744 682.56 166.539 679.451 167.607L679.443 167.787C680.877 167.968 682.042 168.108 682.939 168.206C683.895 168.307 684.672 168.4 685.269 168.486C685.866 168.572 686.28 168.709 686.512 168.899C686.747 169.03 686.857 169.274 686.841 169.634C686.826 169.994 686.575 170.253 686.087 170.413C685.663 170.515 685.33 170.56 685.091 170.55L678.046 170.97C676.782 171.036 675.396 171.157 673.887 171.333C672.378 171.508 670.964 171.568 669.645 171.512C668.986 171.483 668.273 171.303 667.507 170.97C666.8 170.639 666.465 170.054 666.501 169.215C666.531 168.496 666.718 167.633 667.062 166.627C667.405 165.621 667.838 164.618 668.361 163.62C668.884 162.621 669.406 161.652 669.927 160.714C670.507 159.778 671.049 159.05 671.551 158.531C672.684 157.318 674.654 156.201 677.46 155.18C680.329 154.102 683.67 153.194 687.485 152.456C691.363 151.661 695.561 151.09 700.08 150.742C704.659 150.397 709.226 150.322 713.782 150.517C715.161 150.576 716.747 150.704 718.54 150.901C720.336 151.038 722.187 151.297 724.092 151.679C726 152 727.872 152.471 729.707 153.09C731.545 153.649 733.162 154.438 734.56 155.459C735.96 156.42 737.081 157.609 737.921 159.026C738.764 160.383 739.144 162.021 739.062 163.939C739.013 165.078 738.78 166.329 738.361 167.692C738.003 169.058 737.495 170.388 736.84 171.681C736.184 172.974 735.441 174.204 734.61 175.369C733.782 176.475 732.903 177.368 731.973 178.049C730.671 179.014 729.435 179.832 728.265 180.503C727.098 181.114 725.753 181.657 724.232 182.132C722.71 182.608 720.95 183.043 718.951 183.438C716.955 183.773 714.505 184.179 711.602 184.655C708.702 185.072 705.258 185.555 701.271 186.105C697.346 186.598 692.665 187.239 687.226 188.027L687.219 188.207L711.166 196.978C714.949 198.401 717.84 199.605 719.839 200.592C721.899 201.58 723.394 202.425 724.325 203.125C725.256 203.826 725.803 204.39 725.965 204.817C726.129 205.184 726.267 205.46 726.38 205.645C726.766 206.443 727.055 207.416 727.246 208.565C727.437 209.714 727.481 210.797 727.377 211.814C727.334 212.833 727.117 213.694 726.726 214.398C726.333 215.162 725.747 215.527 724.968 215.494C724.368 215.468 723.567 215.254 722.563 214.851C721.617 214.51 720.584 214.076 719.466 213.547C718.405 213.082 717.374 212.617 716.373 212.154C715.374 211.631 714.58 211.237 713.991 210.971ZM700.662 170.855L693.574 180.732L716.213 175.844C717.122 175.643 718.462 175.22 720.231 174.575C722.06 173.932 723.864 173.168 725.644 172.284C727.426 171.339 728.97 170.324 730.278 169.239C731.645 168.156 732.352 167.075 732.398 165.996C732.429 165.277 731.942 164.716 730.939 164.312C729.935 163.909 728.748 163.588 727.377 163.349C726.066 163.113 724.751 162.967 723.432 162.911C722.176 162.797 721.306 162.76 720.824 162.799L704.139 163.257C704.133 164.818 703.774 166.184 703.063 167.355C702.355 168.466 701.555 169.632 700.662 170.855ZM792.04 194.669L785.903 205.487C785.882 205.967 786.017 206.333 786.306 206.585C786.595 206.838 786.98 206.974 787.46 206.995C787.879 207.013 788.271 206.97 788.636 206.865C789.004 206.701 789.465 206.45 790.02 206.113C790.634 205.779 791.374 205.331 792.239 204.767C793.106 204.143 794.221 203.35 795.584 202.388L797.102 204.795C795.977 205.828 794.666 207.003 793.168 208.32C791.673 209.577 790.091 210.771 788.421 211.9C786.754 212.97 785.033 213.888 783.259 214.653C781.547 215.36 779.882 215.679 778.263 215.61C776.645 215.541 775.499 214.951 774.826 213.842C774.152 212.732 773.847 211.458 773.908 210.019C773.916 209.839 773.895 209.628 773.845 209.386C773.795 209.143 773.94 208.579 774.278 207.693C774.678 206.749 775.371 205.307 776.354 203.367C777.398 201.43 778.987 198.676 781.122 195.103L761.493 194.895L742.275 212.45C741.713 212.967 741.058 213.539 740.31 214.168C739.62 214.859 738.873 215.488 738.068 216.054C737.323 216.623 736.522 217.099 735.664 217.483C734.807 217.866 733.989 218.042 733.21 218.008C732.55 217.98 731.866 217.831 731.157 217.56C730.448 217.29 730.111 216.735 730.147 215.896C730.178 215.176 730.642 214.145 731.541 212.802C732.376 211.517 733.514 210.184 734.954 208.804C736.395 207.425 738.072 206.115 739.987 204.876C741.964 203.579 744.017 202.616 746.146 201.986L753.49 194.553C752.049 194.551 750.787 194.558 749.706 194.571C748.627 194.525 747.699 194.456 746.922 194.362C746.208 194.212 745.676 194.009 745.327 193.754C744.98 193.439 744.819 192.981 744.845 192.382C744.863 191.962 745.253 191.258 746.016 190.27C746.781 189.222 747.758 188.152 748.946 187.062C750.133 185.972 751.408 184.945 752.771 183.983C754.133 183.02 755.421 182.384 756.636 182.076C757.548 181.815 758.487 181.615 759.454 181.476C760.423 181.277 761.329 181.166 762.17 181.141C763.015 181.057 763.704 181.087 764.239 181.23C764.776 181.313 765.038 181.504 765.025 181.804C765.007 182.224 764.634 182.508 763.907 182.657C763.243 182.749 762.488 182.837 761.644 182.921C760.862 182.947 760.108 183.035 759.381 183.184C758.716 183.276 758.375 183.532 758.357 183.951C758.344 184.251 758.485 184.467 758.78 184.6C759.074 184.733 759.342 184.804 759.581 184.814C759.941 184.83 760.391 184.849 760.93 184.872C761.532 184.838 762.133 184.833 762.732 184.859C763.334 184.825 763.845 184.816 764.265 184.834C764.687 184.792 764.958 184.774 765.078 184.779L785.934 168.915C788.229 167.212 790.585 165.481 793.002 163.722C795.42 161.964 797.738 160.411 799.958 159.065C802.18 157.659 804.179 156.543 805.956 155.718C807.795 154.836 809.225 154.416 810.244 154.46C811.203 154.501 811.933 154.983 812.434 155.905C812.998 156.77 813.261 157.622 813.226 158.461C813.185 159.42 812.776 160.544 812.001 161.832C811.287 163.062 810.673 164.087 810.158 164.906L798.174 183.941C799.852 184.013 800.963 184.031 801.505 183.994C802.049 183.897 802.441 183.854 802.681 183.864C802.983 183.817 803.312 183.861 803.666 183.996C804.084 184.074 805.005 184.293 806.431 184.655C805.045 186.157 803.776 187.754 802.623 189.446C801.469 191.139 800.345 192.862 799.249 194.617L792.04 194.669ZM788.267 183.878L801.373 163.9L801.2 163.712L774.296 184.092L774.468 184.279L788.267 183.878ZM829.389 183.474L831.656 183.12C832.141 183.021 832.715 182.926 833.38 182.834C834.044 182.742 834.616 182.707 835.096 182.727C835.636 182.75 835.892 183.061 835.867 183.661C835.839 184.32 835.483 184.906 834.801 185.417C834.121 185.868 833.534 186.264 833.039 186.603C832.669 186.827 832.143 187.195 831.46 187.706C830.78 188.158 830.039 188.636 829.237 189.143C828.494 189.651 827.754 190.1 827.017 190.489C826.282 190.818 825.705 190.974 825.286 190.956C824.866 190.938 824.186 190.698 823.244 190.238C822.366 189.72 821.461 189.111 820.53 188.41C819.662 187.652 818.913 186.9 818.284 186.152C817.658 185.345 817.389 184.613 817.477 183.956C817.755 181.686 818.573 179.408 819.931 177.124C821.353 174.783 823.07 172.544 825.083 170.408C827.156 168.275 829.492 166.303 832.092 164.492C834.694 162.622 837.345 161.023 840.044 159.697C842.803 158.374 845.519 157.349 848.193 156.622C850.926 155.899 853.432 155.585 855.71 155.683C857.208 155.747 858.486 156.072 859.542 156.657C860.657 157.245 861.556 158.004 862.237 158.934C862.978 159.867 863.501 160.97 863.807 162.244C864.115 163.459 864.24 164.755 864.181 166.134C864.099 168.052 863.615 170.253 862.728 172.738C861.901 175.225 860.799 177.82 859.422 180.524C858.106 183.23 856.576 185.987 854.835 188.795C853.156 191.546 851.449 194.236 849.716 196.864C848.044 199.435 846.379 201.856 844.721 204.128C843.122 206.401 841.719 208.323 840.511 209.893C840.83 210.868 840.783 211.947 840.373 213.13C839.964 214.254 839.377 215.34 838.612 216.388C837.849 217.376 837.003 218.211 836.073 218.892C835.143 219.573 834.317 219.928 833.595 219.957C833.053 219.994 832.487 219.88 831.898 219.614C831.309 219.349 830.753 218.995 830.232 218.552C829.768 218.172 829.367 217.704 829.031 217.149C828.754 216.597 828.627 216.051 828.65 215.512C828.678 214.852 828.855 214.229 829.18 213.643C829.566 213.059 829.948 212.534 830.329 212.07C834.463 206.662 838.132 201.624 841.334 196.956C844.539 192.229 847.21 188.049 849.347 184.417C851.546 180.728 853.211 177.616 854.34 175.082C855.469 172.548 856.058 170.711 856.107 169.572C856.138 168.853 855.991 168.066 855.667 167.211C855.346 166.297 854.736 165.82 853.837 165.782C852.63 165.91 850.923 166.498 848.717 167.545C846.513 168.532 844.204 169.844 841.792 171.483C839.383 173.061 837.022 174.912 834.709 177.035C832.458 179.101 830.685 181.247 829.389 183.474Z" fill="#000"/>
<path d="M43.8615 309.594C44.3923 309.544 47.0825 309.156 49.8283 308.712C52.574 308.269 60.1292 307.157 66.6113 306.223C79.058 304.423 84.7626 303.598 99.4664 301.443C104.458 300.722 111.866 299.636 115.918 299.049C119.972 298.445 125.664 297.603 128.567 297.167C133.694 296.386 158.512 292.759 168.444 291.341C171.168 290.942 177.101 290.071 181.66 289.382C186.203 288.691 195.946 287.261 203.305 286.185C210.663 285.124 221.963 283.459 228.432 282.507C252.199 279.014 259.099 278.045 261.529 277.921C263.577 277.805 263.524 277.734 265.318 282.548C266.06 284.543 267.992 288.076 269.282 289.802C271.089 292.221 272.851 293.428 274.235 293.184C275.536 292.96 276.46 292.063 277.483 290.037C279.13 286.769 279.899 282.881 280.155 276.508C280.235 274.425 280.338 272.504 280.377 272.24C280.455 271.696 279.913 271.824 286.376 270.808C291.458 270.004 294.216 269.372 296.138 268.587C296.931 268.258 298.163 267.865 298.885 267.7C304.872 266.345 347.693 262.215 383.287 259.561C435.897 255.657 494.731 253.147 550.607 252.445C573.1 252.163 578.328 252.111 583.533 252.103C624.925 252.034 691.179 253.517 735.654 255.497C739.595 255.671 744.452 255.882 746.457 255.95C751.429 256.13 755.558 256.331 762.057 256.701C765.079 256.869 770.118 257.138 773.238 257.288C782.236 257.718 815.521 259.617 823.834 260.17C825.611 260.284 830.878 260.618 835.548 260.914C840.22 261.193 846.129 261.589 848.671 261.782C853.818 262.178 856.421 262.285 856.994 262.162L857.385 262.092L857.018 261.118C856.245 259.118 854.304 255.537 852.342 252.539C851.706 251.559 851.115 250.6 851.018 250.396C850.845 250.054 850.847 250.038 851.2 250.232C851.728 250.53 851.804 250.224 851.491 248.989C850.541 245.36 847.968 242.528 843.076 239.71C838.872 237.292 833.488 236.45 808.848 234.358C742.027 228.683 685.432 225.695 621.226 224.428C522.862 222.47 426.164 225.227 321.844 232.958C304.844 234.21 301.254 234.452 294.907 234.675C286.483 234.995 282.039 234.891 279.055 234.348C276.058 233.787 275.548 233.364 271.782 228.471C268.27 223.901 267.703 223.438 265.369 223.227C263.786 223.093 262.601 223.382 261.698 224.14C260.293 225.301 258.737 228.376 258.143 231.162C257.547 233.963 256.295 235.924 253.949 237.774C252.837 238.661 252.372 238.911 251.11 239.299C247.055 240.569 216.649 245.64 152.497 255.726C118.01 261.143 72.0735 268.821 55.5025 271.928C40.1712 274.802 35.6425 276.161 33.4974 278.485C32.2912 279.802 31.8179 281.098 31.3005 284.672C30.7922 288.074 30.769 289.768 31.1466 293.298C32.0396 301.488 34.2159 306.293 38.0139 308.446C38.8814 308.92 39.3053 309.061 40.9638 309.333C42.2337 309.548 43.2351 309.646 43.8615 309.594Z" fill="#000"/>
<path d="M342.52 154.64C342.52 154.96 342.52 155.24 342.52 155.48C342.6 155.72 342.88 156 343.36 156.32C343.84 156.64 344.68 157.04 345.88 157.52C347.08 158 348.88 158.56 351.28 159.2C353.68 159.84 356.72 160.64 360.4 161.6C364.16 162.56 368.84 163.68 374.44 164.96C380.52 166.4 385 168.56 387.88 171.44C390.76 174.24 392.2 177.12 392.2 180.08C392.2 184.08 391.12 187.56 388.96 190.52C386.88 193.4 384.12 195.88 380.68 197.96C377.24 199.96 373.36 201.6 369.04 202.88C364.8 204.16 360.48 205.16 356.08 205.88C351.68 206.6 347.44 207.08 343.36 207.32C339.36 207.64 335.92 207.8 333.04 207.8C331.84 207.8 330.16 207.76 328 207.68C325.84 207.6 323.68 207.32 321.52 206.84C319.44 206.44 317.6 205.8 316 204.92C314.48 203.96 313.72 202.6 313.72 200.84C313.72 200.2 313.92 199.4 314.32 198.44C314.8 197.4 315.36 196.36 316 195.32C316.72 194.2 317.4 193.2 318.04 192.32C318.76 191.36 319.36 190.64 319.84 190.16C320.16 189.84 320.8 189.48 321.76 189.08C322.72 188.68 323.72 188.32 324.76 188C325.88 187.6 326.92 187.28 327.88 187.04C328.92 186.8 329.68 186.68 330.16 186.68C330.8 186.68 331.12 186.96 331.12 187.52C331.12 188.16 330.88 188.64 330.4 188.96C329.92 189.28 329.48 189.56 329.08 189.8C328.68 190.04 328.32 190.32 328 190.64C327.76 190.88 327.44 191.2 327.04 191.6V191.84C337.76 192.24 346.64 191.88 353.68 190.76C360.72 189.64 366.28 188.32 370.36 186.8C374.52 185.2 377.44 183.64 379.12 182.12C380.8 180.6 381.64 179.6 381.64 179.12C381.64 178.08 380.8 177.12 379.12 176.24C377.52 175.28 375.4 174.4 372.76 173.6C370.2 172.72 367.36 171.96 364.24 171.32C361.2 170.6 358.2 169.96 355.24 169.4C352.36 168.84 349.76 168.4 347.44 168.08C345.2 167.68 343.6 167.4 342.64 167.24C341.12 167 339.64 166.68 338.2 166.28C336.76 165.88 335.44 165.32 334.24 164.6C333.12 163.8 332.2 162.84 331.48 161.72C330.76 160.52 330.4 159 330.4 157.16C330.4 156.2 330.48 155 330.64 153.56C330.88 152.04 331.16 150.52 331.48 149C331.88 147.4 332.32 145.92 332.8 144.56C333.28 143.12 333.76 142 334.24 141.2C335.2 139.68 337.2 137.92 340.24 135.92C343.28 133.84 347.08 131.92 351.64 130.16C356.2 128.32 361.4 126.8 367.24 125.6C373.16 124.32 379.4 123.68 385.96 123.68C390.84 123.68 395.88 124.24 401.08 125.36C402.44 125.68 403.28 126.12 403.6 126.68C404 127.24 404.2 128.12 404.2 129.32C404.2 131.56 404 133.4 403.6 134.84C403.2 136.28 402.6 137.48 401.8 138.44C401 139.4 399.96 140.24 398.68 140.96C397.4 141.6 395.88 142.28 394.12 143C392.84 143.48 391.76 143.92 390.88 144.32C390.08 144.64 389.28 145 388.48 145.4C387.76 145.8 387 146.28 386.2 146.84C385.48 147.4 384.52 148.08 383.32 148.88C382.92 149.12 382.44 149.4 381.88 149.72C381.32 149.96 380.8 150.08 380.32 150.08C379.04 150.08 378.4 149.48 378.4 148.28C378.4 148.12 379.04 147.24 380.32 145.64C381.6 144.04 383.88 142.12 387.16 139.88L386.92 139.64C379.16 139.88 372.48 140.68 366.88 142.04C361.36 143.4 356.8 144.92 353.2 146.6C349.6 148.2 346.92 149.76 345.16 151.28C343.4 152.8 342.52 153.92 342.52 154.64Z" fill="#000"/>
</svg>
